<svg xmlns="http://www.w3.org/2000/svg" xmlns:xlink="http://www.w3.org/1999/xlink" width="1600" height="1786" viewBox="0 0 1600 1786"><defs><filter id="grey"><feColorMatrix type="saturate" values="0"/></filter></defs><rect width="1600" height="1786" fill="#f7f7f4"/><text x="60" y="78" font-family="system-ui,-apple-system,'Segoe UI',Helvetica,Arial,sans-serif" font-size="40" font-weight="700" fill="#161616">Zentlet — conceptos de logo</text><text x="60" y="116" font-family="system-ui,-apple-system,'Segoe UI',Helvetica,Arial,sans-serif" font-size="20" fill="#6b6b6b">Ronda 1 · en gris para juzgar la forma</text><rect x="60" y="150" width="474.667" height="774" rx="18" fill="#fff" stroke="#e4e4e0" stroke-width="1"/><g filter="url(#grey)"><svg xmlns="http://www.w3.org/2000/svg" viewBox="0 0 256 256" x="90" y="190" width="414.667" height="300" preserveAspectRatio="xMidYMid meet"><path fill="#000" fill-rule="evenodd" d="M80,28H176A52,52 0 0 1 228,80V148A52,52 0 0 1 176,200H104L56,234C50,238 44,234 46,227L54,196A52,52 0 0 1 28,148V80A52,52 0 0 1 80,28Z M80,64H176V88L118,138H176V162H80V138L138,88H80Z"/></svg>
</g><g filter="url(#grey)"><svg xmlns="http://www.w3.org/2000/svg" viewBox="0 0 860 256" x="90" y="514" width="414.667" height="120" preserveAspectRatio="xMidYMid meet"><style>@font-face{font-family:R;font-weight:700;src:url(file:///System/Library/Fonts/SFNSRounded.ttf)}.zw{font-family:R,sans-serif;font-weight:700;font-size:132px;letter-spacing:-4px}</style><g transform="translate(8,28) scale(0.78125)"><path fill="#000" fill-rule="evenodd" d="M80,28H176A52,52 0 0 1 228,80V148A52,52 0 0 1 176,200H104L56,234C50,238 44,234 46,227L54,196A52,52 0 0 1 28,148V80A52,52 0 0 1 80,28Z M80,64H176V88L118,138H176V162H80V138L138,88H80Z"/></g><text class="zw" x="236" y="175">Zentlet</text></svg></g><g filter="url(#grey)"><svg xmlns="http://www.w3.org/2000/svg" viewBox="0 0 256 256" x="90" y="660" width="64" height="64" preserveAspectRatio="xMidYMid meet"><path fill="#000" fill-rule="evenodd" d="M80,28H176A52,52 0 0 1 228,80V148A52,52 0 0 1 176,200H104L56,234C50,238 44,234 46,227L54,196A52,52 0 0 1 28,148V80A52,52 0 0 1 80,28Z M80,64H176V88L118,138H176V162H80V138L138,88H80Z"/></svg>
</g><text x="122" y="744" font-family="system-ui,-apple-system,'Segoe UI',Helvetica,Arial,sans-serif" font-size="12" fill="#8a8a8a" text-anchor="middle">64px</text><g filter="url(#grey)"><svg xmlns="http://www.w3.org/2000/svg" viewBox="0 0 256 256" x="180" y="692" width="32" height="32" preserveAspectRatio="xMidYMid meet"><path fill="#000" fill-rule="evenodd" d="M80,28H176A52,52 0 0 1 228,80V148A52,52 0 0 1 176,200H104L56,234C50,238 44,234 46,227L54,196A52,52 0 0 1 28,148V80A52,52 0 0 1 80,28Z M80,64H176V88L118,138H176V162H80V138L138,88H80Z"/></svg>
</g><text x="196" y="744" font-family="system-ui,-apple-system,'Segoe UI',Helvetica,Arial,sans-serif" font-size="12" fill="#8a8a8a" text-anchor="middle">32px</text><g filter="url(#grey)"><svg xmlns="http://www.w3.org/2000/svg" viewBox="0 0 256 256" x="238" y="708" width="16" height="16" preserveAspectRatio="xMidYMid meet"><path fill="#000" fill-rule="evenodd" d="M80,28H176A52,52 0 0 1 228,80V148A52,52 0 0 1 176,200H104L56,234C50,238 44,234 46,227L54,196A52,52 0 0 1 28,148V80A52,52 0 0 1 80,28Z M80,64H176V88L118,138H176V162H80V138L138,88H80Z"/></svg>
</g><text x="246" y="744" font-family="system-ui,-apple-system,'Segoe UI',Helvetica,Arial,sans-serif" font-size="12" fill="#8a8a8a" text-anchor="middle">16px</text><text x="90.0" y="780" font-family="system-ui,-apple-system,'Segoe UI',Helvetica,Arial,sans-serif" font-size="26" font-weight="700" fill="#161616">A · Burbuja</text><text x="90.0" y="814" font-family="system-ui,-apple-system,'Segoe UI',Helvetica,Arial,sans-serif" font-size="19" fill="#555">Una Z dentro de un globo de chat: anotas</text><text x="90.0" y="840" font-family="system-ui,-apple-system,'Segoe UI',Helvetica,Arial,sans-serif" font-size="19" fill="#555">como hablas.</text><rect x="562.667" y="150" width="474.667" height="774" rx="18" fill="#fff" stroke="#161616" stroke-width="2"/><g filter="url(#grey)"><svg xmlns="http://www.w3.org/2000/svg" viewBox="0 0 256 256" x="592.667" y="190" width="414.667" height="300" preserveAspectRatio="xMidYMid meet"><rect x="16" y="16" width="224" height="224" rx="60" fill="#000"/><path d="M78,96H150L84,166H156" fill="none" stroke="#fff" stroke-width="30" stroke-linecap="round" stroke-linejoin="round"/><circle cx="190" cy="166" r="18" fill="#fff"/></svg>
</g><g filter="url(#grey)"><svg xmlns="http://www.w3.org/2000/svg" viewBox="0 0 860 256" x="592.667" y="514" width="414.667" height="120" preserveAspectRatio="xMidYMid meet"><style>@font-face{font-family:R;font-weight:700;src:url(file:///System/Library/Fonts/SFNSRounded.ttf)}.zw{font-family:R,sans-serif;font-weight:700;font-size:132px;letter-spacing:-4px}</style><g transform="translate(8,28) scale(0.78125)"><rect x="16" y="16" width="224" height="224" rx="60" fill="#000"/><path d="M78,96H150L84,166H156" fill="none" stroke="#fff" stroke-width="30" stroke-linecap="round" stroke-linejoin="round"/><circle cx="190" cy="166" r="18" fill="#fff"/></g><text class="zw" x="236" y="175">zentlet<tspan>.</tspan></text></svg></g><g filter="url(#grey)"><svg xmlns="http://www.w3.org/2000/svg" viewBox="0 0 256 256" x="592.667" y="660" width="64" height="64" preserveAspectRatio="xMidYMid meet"><rect x="16" y="16" width="224" height="224" rx="60" fill="#000"/><path d="M78,96H150L84,166H156" fill="none" stroke="#fff" stroke-width="30" stroke-linecap="round" stroke-linejoin="round"/><circle cx="190" cy="166" r="18" fill="#fff"/></svg>
</g><text x="624.667" y="744" font-family="system-ui,-apple-system,'Segoe UI',Helvetica,Arial,sans-serif" font-size="12" fill="#8a8a8a" text-anchor="middle">64px</text><g filter="url(#grey)"><svg xmlns="http://www.w3.org/2000/svg" viewBox="0 0 256 256" x="682.667" y="692" width="32" height="32" preserveAspectRatio="xMidYMid meet"><rect x="16" y="16" width="224" height="224" rx="60" fill="#000"/><path d="M78,96H150L84,166H156" fill="none" stroke="#fff" stroke-width="30" stroke-linecap="round" stroke-linejoin="round"/><circle cx="190" cy="166" r="18" fill="#fff"/></svg>
</g><text x="698.667" y="744" font-family="system-ui,-apple-system,'Segoe UI',Helvetica,Arial,sans-serif" font-size="12" fill="#8a8a8a" text-anchor="middle">32px</text><g filter="url(#grey)"><svg xmlns="http://www.w3.org/2000/svg" viewBox="0 0 256 256" x="740.667" y="708" width="16" height="16" preserveAspectRatio="xMidYMid meet"><rect x="16" y="16" width="224" height="224" rx="60" fill="#000"/><path d="M78,96H150L84,166H156" fill="none" stroke="#fff" stroke-width="30" stroke-linecap="round" stroke-linejoin="round"/><circle cx="190" cy="166" r="18" fill="#fff"/></svg>
</g><text x="748.667" y="744" font-family="system-ui,-apple-system,'Segoe UI',Helvetica,Arial,sans-serif" font-size="12" fill="#8a8a8a" text-anchor="middle">16px</text><text x="592.6666666666667" y="780" font-family="system-ui,-apple-system,'Segoe UI',Helvetica,Arial,sans-serif" font-size="26" font-weight="700" fill="#161616">B · Z punto</text><text x="592.6666666666667" y="808" font-family="system-ui,-apple-system,'Segoe UI',Helvetica,Arial,sans-serif" font-size="15" font-weight="700" fill="#161616" letter-spacing="1.5">RECOMMENDED</text><text x="592.6666666666667" y="842" font-family="system-ui,-apple-system,'Segoe UI',Helvetica,Arial,sans-serif" font-size="19" fill="#555">La z y el punto rojo del wordmark actual,</text><text x="592.6666666666667" y="868" font-family="system-ui,-apple-system,'Segoe UI',Helvetica,Arial,sans-serif" font-size="19" fill="#555">en un icono.</text><rect x="1065.33" y="150" width="474.667" height="774" rx="18" fill="#fff" stroke="#e4e4e0" stroke-width="1"/><g filter="url(#grey)"><svg xmlns="http://www.w3.org/2000/svg" viewBox="0 0 256 256" x="1095.33" y="190" width="414.667" height="300" preserveAspectRatio="xMidYMid meet"><rect width="256" height="256" fill="none"/><g fill="none" stroke="#000" stroke-width="38" stroke-linecap="round"><path d="M62,62H194"/><path d="M62,194H194"/><path d="M180,108L76,148"/></g></svg>
</g><g filter="url(#grey)"><svg xmlns="http://www.w3.org/2000/svg" viewBox="0 0 860 256" x="1095.33" y="514" width="414.667" height="120" preserveAspectRatio="xMidYMid meet"><style>@font-face{font-family:R;font-weight:700;src:url(file:///System/Library/Fonts/SFNSRounded.ttf)}.zw{font-family:R,sans-serif;font-weight:700;font-size:132px;letter-spacing:-4px}</style><g transform="translate(8,28) scale(0.78125)"><g fill="none" stroke="#000" stroke-width="38" stroke-linecap="round"><path d="M62,62H194"/><path d="M62,194H194"/><path d="M180,108L76,148"/></g></g><text class="zw" x="236" y="175">Zentlet</text></svg></g><g filter="url(#grey)"><svg xmlns="http://www.w3.org/2000/svg" viewBox="0 0 256 256" x="1095.33" y="660" width="64" height="64" preserveAspectRatio="xMidYMid meet"><rect width="256" height="256" fill="none"/><g fill="none" stroke="#000" stroke-width="38" stroke-linecap="round"><path d="M62,62H194"/><path d="M62,194H194"/><path d="M180,108L76,148"/></g></svg>
</g><text x="1127.33" y="744" font-family="system-ui,-apple-system,'Segoe UI',Helvetica,Arial,sans-serif" font-size="12" fill="#8a8a8a" text-anchor="middle">64px</text><g filter="url(#grey)"><svg xmlns="http://www.w3.org/2000/svg" viewBox="0 0 256 256" x="1185.33" y="692" width="32" height="32" preserveAspectRatio="xMidYMid meet"><rect width="256" height="256" fill="none"/><g fill="none" stroke="#000" stroke-width="38" stroke-linecap="round"><path d="M62,62H194"/><path d="M62,194H194"/><path d="M180,108L76,148"/></g></svg>
</g><text x="1201.33" y="744" font-family="system-ui,-apple-system,'Segoe UI',Helvetica,Arial,sans-serif" font-size="12" fill="#8a8a8a" text-anchor="middle">32px</text><g filter="url(#grey)"><svg xmlns="http://www.w3.org/2000/svg" viewBox="0 0 256 256" x="1243.33" y="708" width="16" height="16" preserveAspectRatio="xMidYMid meet"><rect width="256" height="256" fill="none"/><g fill="none" stroke="#000" stroke-width="38" stroke-linecap="round"><path d="M62,62H194"/><path d="M62,194H194"/><path d="M180,108L76,148"/></g></svg>
</g><text x="1251.33" y="744" font-family="system-ui,-apple-system,'Segoe UI',Helvetica,Arial,sans-serif" font-size="12" fill="#8a8a8a" text-anchor="middle">16px</text><text x="1095.3333333333335" y="780" font-family="system-ui,-apple-system,'Segoe UI',Helvetica,Arial,sans-serif" font-size="26" font-weight="700" fill="#161616">C · Balance</text><text x="1095.3333333333335" y="814" font-family="system-ui,-apple-system,'Segoe UI',Helvetica,Arial,sans-serif" font-size="19" fill="#555">Arriba ingreso, abajo gasto; la diagonal es</text><text x="1095.3333333333335" y="840" font-family="system-ui,-apple-system,'Segoe UI',Helvetica,Arial,sans-serif" font-size="19" fill="#555">tu balance.</text><rect x="60" y="952" width="474.667" height="774" rx="18" fill="#fff" stroke="#e4e4e0" stroke-width="1"/><g filter="url(#grey)"><svg xmlns="http://www.w3.org/2000/svg" viewBox="0 0 256 256" x="90" y="992" width="414.667" height="300" preserveAspectRatio="xMidYMid meet"><rect width="256" height="256" fill="none"/><g fill="none" stroke="#000" stroke-width="30" stroke-linecap="round"><path d="M60,62H196"/><path d="M60,194H196"/><path d="M176,62V100"/><path d="M128,108V148"/><path d="M80,156V194"/></g></svg>
</g><g filter="url(#grey)"><svg xmlns="http://www.w3.org/2000/svg" viewBox="0 0 860 256" x="90" y="1316" width="414.667" height="120" preserveAspectRatio="xMidYMid meet"><style>@font-face{font-family:R;font-weight:700;src:url(file:///System/Library/Fonts/SFNSRounded.ttf)}.zw{font-family:R,sans-serif;font-weight:700;font-size:132px;letter-spacing:-4px}</style><g transform="translate(8,28) scale(0.78125)"><g fill="none" stroke="#000" stroke-width="30" stroke-linecap="round"><path d="M60,62H196"/><path d="M60,194H196"/><path d="M176,62V100"/><path d="M128,108V148"/><path d="M80,156V194"/></g></g><text class="zw" x="236" y="175">Zentlet</text></svg></g><g filter="url(#grey)"><svg xmlns="http://www.w3.org/2000/svg" viewBox="0 0 256 256" x="90" y="1462" width="64" height="64" preserveAspectRatio="xMidYMid meet"><rect width="256" height="256" fill="none"/><g fill="none" stroke="#000" stroke-width="30" stroke-linecap="round"><path d="M60,62H196"/><path d="M60,194H196"/><path d="M176,62V100"/><path d="M128,108V148"/><path d="M80,156V194"/></g></svg>
</g><text x="122" y="1546" font-family="system-ui,-apple-system,'Segoe UI',Helvetica,Arial,sans-serif" font-size="12" fill="#8a8a8a" text-anchor="middle">64px</text><g filter="url(#grey)"><svg xmlns="http://www.w3.org/2000/svg" viewBox="0 0 256 256" x="180" y="1494" width="32" height="32" preserveAspectRatio="xMidYMid meet"><rect width="256" height="256" fill="none"/><g fill="none" stroke="#000" stroke-width="30" stroke-linecap="round"><path d="M60,62H196"/><path d="M60,194H196"/><path d="M176,62V100"/><path d="M128,108V148"/><path d="M80,156V194"/></g></svg>
</g><text x="196" y="1546" font-family="system-ui,-apple-system,'Segoe UI',Helvetica,Arial,sans-serif" font-size="12" fill="#8a8a8a" text-anchor="middle">32px</text><g filter="url(#grey)"><svg xmlns="http://www.w3.org/2000/svg" viewBox="0 0 256 256" x="238" y="1510" width="16" height="16" preserveAspectRatio="xMidYMid meet"><rect width="256" height="256" fill="none"/><g fill="none" stroke="#000" stroke-width="30" stroke-linecap="round"><path d="M60,62H196"/><path d="M60,194H196"/><path d="M176,62V100"/><path d="M128,108V148"/><path d="M80,156V194"/></g></svg>
</g><text x="246" y="1546" font-family="system-ui,-apple-system,'Segoe UI',Helvetica,Arial,sans-serif" font-size="12" fill="#8a8a8a" text-anchor="middle">16px</text><text x="90.0" y="1582" font-family="system-ui,-apple-system,'Segoe UI',Helvetica,Arial,sans-serif" font-size="26" font-weight="700" fill="#161616">D · Voz</text><text x="90.0" y="1616" font-family="system-ui,-apple-system,'Segoe UI',Helvetica,Arial,sans-serif" font-size="19" fill="#555">La Z escalonada como barras de voz: lo</text><text x="90.0" y="1642" font-family="system-ui,-apple-system,'Segoe UI',Helvetica,Arial,sans-serif" font-size="19" fill="#555">dictas y queda.</text><rect x="562.667" y="952" width="474.667" height="774" rx="18" fill="#fff" stroke="#e4e4e0" stroke-width="1"/><g filter="url(#grey)"><svg xmlns="http://www.w3.org/2000/svg" viewBox="0 0 256 256" x="592.667" y="992" width="414.667" height="300" preserveAspectRatio="xMidYMid meet"><rect width="256" height="256" fill="none"/><path d="M62,70H184L76,186L198,153" fill="none" stroke="#000" stroke-width="30" stroke-linecap="round" stroke-linejoin="round"/></svg>
</g><g filter="url(#grey)"><svg xmlns="http://www.w3.org/2000/svg" viewBox="0 0 860 256" x="592.667" y="1316" width="414.667" height="120" preserveAspectRatio="xMidYMid meet"><style>@font-face{font-family:R;font-weight:700;src:url(file:///System/Library/Fonts/SFNSRounded.ttf)}.zw{font-family:R,sans-serif;font-weight:700;font-size:132px;letter-spacing:-4px}</style><g transform="translate(8,28) scale(0.78125)"><path d="M62,70H184L76,186L198,153" fill="none" stroke="#000" stroke-width="30" stroke-linecap="round" stroke-linejoin="round"/></g><text class="zw" x="236" y="175">Zentlet</text></svg></g><g filter="url(#grey)"><svg xmlns="http://www.w3.org/2000/svg" viewBox="0 0 256 256" x="592.667" y="1462" width="64" height="64" preserveAspectRatio="xMidYMid meet"><rect width="256" height="256" fill="none"/><path d="M62,70H184L76,186L198,153" fill="none" stroke="#000" stroke-width="30" stroke-linecap="round" stroke-linejoin="round"/></svg>
</g><text x="624.667" y="1546" font-family="system-ui,-apple-system,'Segoe UI',Helvetica,Arial,sans-serif" font-size="12" fill="#8a8a8a" text-anchor="middle">64px</text><g filter="url(#grey)"><svg xmlns="http://www.w3.org/2000/svg" viewBox="0 0 256 256" x="682.667" y="1494" width="32" height="32" preserveAspectRatio="xMidYMid meet"><rect width="256" height="256" fill="none"/><path d="M62,70H184L76,186L198,153" fill="none" stroke="#000" stroke-width="30" stroke-linecap="round" stroke-linejoin="round"/></svg>
</g><text x="698.667" y="1546" font-family="system-ui,-apple-system,'Segoe UI',Helvetica,Arial,sans-serif" font-size="12" fill="#8a8a8a" text-anchor="middle">32px</text><g filter="url(#grey)"><svg xmlns="http://www.w3.org/2000/svg" viewBox="0 0 256 256" x="740.667" y="1510" width="16" height="16" preserveAspectRatio="xMidYMid meet"><rect width="256" height="256" fill="none"/><path d="M62,70H184L76,186L198,153" fill="none" stroke="#000" stroke-width="30" stroke-linecap="round" stroke-linejoin="round"/></svg>
</g><text x="748.667" y="1546" font-family="system-ui,-apple-system,'Segoe UI',Helvetica,Arial,sans-serif" font-size="12" fill="#8a8a8a" text-anchor="middle">16px</text><text x="592.6666666666667" y="1582" font-family="system-ui,-apple-system,'Segoe UI',Helvetica,Arial,sans-serif" font-size="26" font-weight="700" fill="#161616">E · Trazo</text><text x="592.6666666666667" y="1616" font-family="system-ui,-apple-system,'Segoe UI',Helvetica,Arial,sans-serif" font-size="19" fill="#555">Una Z de un trazo cuya base sube: anotado,</text><text x="592.6666666666667" y="1642" font-family="system-ui,-apple-system,'Segoe UI',Helvetica,Arial,sans-serif" font-size="19" fill="#555">listo.</text></svg>
