<svg xmlns="http://www.w3.org/2000/svg" viewBox="0 0 860 256"><style>@font-face{font-family:R;font-weight:700;src:url(file:///System/Library/Fonts/SFNSRounded.ttf)}.zw{font-family:R,sans-serif;font-weight:700;font-size:132px;letter-spacing:-4px}</style><g transform="translate(8,28) scale(0.78125)"><rect width="256" height="256" fill="none"/><g transform="rotate(6 118 232)"><rect x="105.0" y="188" width="26" height="44" rx="5" fill="#000"/><rect x="101.0" y="188" width="34" height="7" rx="3.5" fill="#000"/><rect x="105.0" y="132" width="26" height="50" rx="5" fill="#000"/><rect x="101.0" y="132" width="34" height="7" rx="3.5" fill="#000"/><rect x="105.0" y="72" width="26" height="54" rx="5" fill="#000"/><rect x="101.0" y="72" width="34" height="7" rx="3.5" fill="#000"/><rect x="105.0" y="26" width="26" height="40" rx="5" fill="#000"/><rect x="101.0" y="26" width="34" height="7" rx="3.5" fill="#000"/></g><g transform="rotate(6 118 232)"><path fill="#000" transform="translate(131 104) rotate(-28)" d="M0,0C19.5,-11 50.7,-11 78,0C50.7,6.6 19.5,6.6 0,0Z"/><path fill="#000" transform="translate(131 108) rotate(8)" d="M0,0C16.0,-10 41.6,-10 64,0C41.6,6.0 16.0,6.0 0,0Z"/><path fill="#000" transform="translate(105 62) rotate(-152)" d="M0,0C17.5,-10 45.5,-10 70,0C45.5,6.0 17.5,6.0 0,0Z"/></g></g><text class="zw" x="236" y="175">Zentlet</text></svg>